<?xml version="1.0" encoding="utf-8"?>
<!-- Generator: Adobe Illustrator 24.3.0, SVG Export Plug-In . SVG Version: 6.00 Build 0)  -->
<svg version="1.1" id="Layer_1" xmlns="http://www.w3.org/2000/svg" xmlns:xlink="http://www.w3.org/1999/xlink" x="0px" y="0px"
	 viewBox="0 0 113.39 113.39" style="enable-background:new 0 0 113.39 113.39;" xml:space="preserve">
<style type="text/css">
	.st0{fill:#D1D0D1;}
	.st1{clip-path:url(#XMLID_2_);fill:none;stroke:#282F5F;stroke-miterlimit:10;}
	.st2{clip-path:url(#XMLID_3_);fill:none;stroke:#282F5F;stroke-miterlimit:10;}
	.st3{fill:none;stroke:#282F5F;stroke-miterlimit:10;}
	.st4{clip-path:url(#XMLID_4_);fill:none;stroke:#282F5F;stroke-miterlimit:10;}
	.st5{fill:none;stroke:#575756;stroke-miterlimit:10;}
	.st6{clip-path:url(#XMLID_5_);fill:none;stroke:#282F5F;stroke-miterlimit:10;}
	.st7{clip-path:url(#XMLID_6_);fill:none;stroke:#282F5F;stroke-miterlimit:10;}
	.st8{clip-path:url(#XMLID_7_);fill:none;stroke:#282F5F;stroke-miterlimit:10;}
	.st9{clip-path:url(#XMLID_8_);fill:none;stroke:#282F5F;stroke-miterlimit:10;}
	.st10{clip-path:url(#XMLID_9_);fill:none;stroke:#282F5F;stroke-miterlimit:10;}
	.st11{clip-path:url(#XMLID_10_);fill:none;stroke:#282F5F;stroke-miterlimit:10;}
	.st12{clip-path:url(#XMLID_11_);fill:none;stroke:#282F5F;stroke-miterlimit:10;}
	.st13{fill:none;}
	.st14{fill:#233262;}
</style>
<rect class="st0" width="113.39" height="113.39"/>
<g id="XMLID_16_">
	<defs>
		
			<rect id="XMLID_325_" x="37.35" y="96.7" transform="matrix(-1 -4.492241e-11 4.492241e-11 -1 92.9124 202.9124)" width="18.22" height="9.51"/>
	</defs>
	<clipPath id="XMLID_2_">
		<use xlink:href="#XMLID_325_"  style="overflow:visible;"/>
	</clipPath>
	<ellipse id="XMLID_326_" class="st1" cx="47.3" cy="96.7" rx="2.01" ry="2.55"/>
</g>
<g id="XMLID_17_">
	<defs>
		
			<rect id="XMLID_322_" x="24.11" y="50.16" transform="matrix(4.468787e-11 -1 1 4.468787e-11 -21.7463 87.9779)" width="18.01" height="9.4"/>
	</defs>
	<clipPath id="XMLID_3_">
		<use xlink:href="#XMLID_322_"  style="overflow:visible;"/>
	</clipPath>
	<ellipse id="XMLID_323_" class="st2" cx="37.81" cy="55.7" rx="2.52" ry="1.98"/>
</g>
<line id="XMLID_320_" class="st3" x1="57.33" y1="46.28" x2="57.33" y2="96.7"/>
<line id="XMLID_319_" class="st3" x1="53.32" y1="46.58" x2="53.32" y2="96.7"/>
<g id="XMLID_18_">
	<defs>
		
			<rect id="XMLID_317_" x="45.37" y="96.7" transform="matrix(-1 -4.492241e-11 4.492241e-11 -1 108.9556 202.9124)" width="18.22" height="9.51"/>
	</defs>
	<clipPath id="XMLID_4_">
		<use xlink:href="#XMLID_317_"  style="overflow:visible;"/>
	</clipPath>
	<ellipse id="XMLID_318_" class="st4" cx="55.32" cy="96.7" rx="2.01" ry="2.55"/>
</g>
<line id="XMLID_315_" class="st3" x1="49.31" y1="28.77" x2="49.31" y2="96.7"/>
<line id="XMLID_314_" class="st3" x1="45.3" y1="28.77" x2="45.3" y2="96.7"/>
<path id="XMLID_19_" class="st5" d="M74.46,24.53"/>
<line id="XMLID_312_" class="st3" x1="64.9" y1="57.68" x2="37.58" y2="57.68"/>
<line id="XMLID_311_" class="st3" x1="64.9" y1="53.72" x2="49.31" y2="53.72"/>
<line id="XMLID_310_" class="st3" x1="49.18" y1="53.72" x2="37.71" y2="53.72"/>
<g id="XMLID_20_">
	<defs>
		<rect id="XMLID_308_" x="51.95" y="32.74" width="27" height="14.36"/>
	</defs>
	<clipPath id="XMLID_5_">
		<use xlink:href="#XMLID_308_"  style="overflow:visible;"/>
	</clipPath>
	<ellipse id="XMLID_309_" class="st6" cx="64.55" cy="46.04" rx="11.24" ry="11.56"/>
</g>
<g id="XMLID_21_">
	<defs>
		
			<rect id="XMLID_305_" x="63.92" y="28.77" transform="matrix(-1 -4.473856e-11 4.473856e-11 -1 145.8501 66.93)" width="18.01" height="9.4"/>
	</defs>
	<clipPath id="XMLID_6_">
		<use xlink:href="#XMLID_305_"  style="overflow:visible;"/>
	</clipPath>
	<ellipse id="XMLID_306_" class="st7" cx="73.76" cy="28.77" rx="1.98" ry="2.52"/>
</g>
<g id="XMLID_22_">
	<defs>
		<rect id="XMLID_302_" x="37.17" y="2.55" width="44.3" height="26.22"/>
	</defs>
	<clipPath id="XMLID_7_">
		<use xlink:href="#XMLID_302_"  style="overflow:visible;"/>
	</clipPath>
	<ellipse id="XMLID_303_" class="st8" cx="60.54" cy="28.77" rx="11.24" ry="11.56"/>
</g>
<g id="XMLID_23_">
	<defs>
		<rect id="XMLID_299_" x="37.67" y="5.68" width="49.55" height="23.08"/>
	</defs>
	<clipPath id="XMLID_8_">
		<use xlink:href="#XMLID_299_"  style="overflow:visible;"/>
	</clipPath>
	<ellipse id="XMLID_300_" class="st9" cx="60.51" cy="28.77" rx="15.23" ry="15.67"/>
</g>
<g id="XMLID_24_">
	<defs>
		
			<rect id="XMLID_296_" x="64.47" y="46.37" transform="matrix(-1 -1.224647e-16 1.224647e-16 -1 145.3402 102.0393)" width="16.4" height="9.3"/>
	</defs>
	<clipPath id="XMLID_9_">
		<use xlink:href="#XMLID_296_"  style="overflow:visible;"/>
	</clipPath>
	<ellipse id="XMLID_297_" class="st10" cx="64.47" cy="46.37" rx="7.14" ry="7.35"/>
</g>
<g id="XMLID_25_">
	<defs>
		<rect id="XMLID_293_" x="55.5" y="37.45" width="17.79" height="8.93"/>
	</defs>
	<clipPath id="XMLID_10_">
		<use xlink:href="#XMLID_293_"  style="overflow:visible;"/>
	</clipPath>
	<ellipse id="XMLID_294_" class="st11" cx="64.47" cy="46.37" rx="7.14" ry="7.35"/>
</g>
<g id="XMLID_26_">
	<defs>
		<rect id="XMLID_290_" x="64.9" y="46.85" width="14.05" height="13.75"/>
	</defs>
	<clipPath id="XMLID_11_">
		<use xlink:href="#XMLID_290_"  style="overflow:visible;"/>
	</clipPath>
	<ellipse id="XMLID_291_" class="st12" cx="64.55" cy="46.12" rx="11.24" ry="11.56"/>
</g>
<rect id="XMLID_288_" x="45.3" y="26.94" class="st13" width="4.01" height="14.74"/>
<rect id="XMLID_287_" x="49.31" y="41.91" class="st13" width="4.01" height="14.74"/>
<rect id="XMLID_286_" x="45.61" y="25.47" class="st14" width="3.32" height="72.7"/>
<rect id="XMLID_285_" x="53.32" y="43.34" class="st14" width="4.01" height="54.83"/>
<rect id="XMLID_284_" x="49.66" y="40.24" transform="matrix(-1.836970e-16 1 -1 -1.836970e-16 106.9163 4.5312)" class="st14" width="3.06" height="30.96"/>
<ellipse id="XMLID_283_" transform="matrix(0.991 -0.1342 0.1342 0.991 -2.987 6.6264)" class="st14" cx="47.66" cy="25.47" rx="1.95" ry="2.81"/>
<ellipse id="XMLID_282_" transform="matrix(0.991 -0.1342 0.1342 0.991 -1.633 7.6302)" class="st14" cx="55.78" cy="15.93" rx="3.04" ry="1.94"/>
<ellipse id="XMLID_281_" transform="matrix(0.997 -0.0775 0.0775 0.997 -0.9861 4.7164)" class="st14" cx="60.29" cy="15.07" rx="4.98" ry="2.13"/>
<ellipse id="XMLID_280_" transform="matrix(0.8371 -0.547 0.547 0.8371 -0.7384 31.9698)" class="st14" cx="53.32" cy="17.22" rx="2.84" ry="2.15"/>
<ellipse id="XMLID_279_" transform="matrix(0.5858 -0.8105 0.8105 0.5858 5.2703 49.3235)" class="st14" cx="50.89" cy="19.51" rx="2.81" ry="2.2"/>
<ellipse id="XMLID_278_" transform="matrix(0.991 -0.1342 0.1342 0.991 -3.1257 10.1724)" class="st14" cx="73.89" cy="28.27" rx="1.95" ry="2.81"/>
<ellipse id="XMLID_277_" transform="matrix(0.1614 -0.9869 0.9869 0.1614 19.1715 66.8599)" class="st14" cx="48.93" cy="22.15" rx="2.81" ry="1.95"/>
<ellipse id="XMLID_276_" transform="matrix(0.5858 -0.8105 0.8105 0.5858 14.1296 61.4947)" class="st14" cx="67.23" cy="16.92" rx="1.95" ry="4.05"/>
<ellipse id="XMLID_275_" transform="matrix(0.9448 -0.3276 0.3276 0.9448 -4.0125 25.2456)" class="st14" cx="72.93" cy="24.53" rx="1.95" ry="4.05"/>
<ellipse id="XMLID_274_" transform="matrix(0.6746 -0.7382 0.7382 0.6746 8.4098 58.6252)" class="st14" cx="70.7" cy="19.77" rx="1.95" ry="4.05"/>
<circle id="XMLID_273_" class="st14" cx="71.92" cy="22.26" r="1.95"/>
<ellipse id="XMLID_272_" transform="matrix(0.5858 -0.8105 0.8105 0.5858 12.8243 58.473)" class="st14" cx="63.62" cy="16.69" rx="1.33" ry="1.95"/>
<ellipse id="XMLID_271_" transform="matrix(0.5858 -0.8105 0.8105 0.5858 -3.4736 75.289)" class="st14" cx="71.92" cy="41.04" rx="1.95" ry="4.05"/>
<ellipse id="XMLID_270_" transform="matrix(0.5858 -0.8105 0.8105 0.5858 -2.5814 73.5879)" class="st14" cx="70.7" cy="39.32" rx="1.95" ry="4.05"/>
<ellipse id="XMLID_269_" transform="matrix(0.5858 -0.8105 0.8105 0.5858 -2.2938 71.8985)" class="st14" cx="69.19" cy="38.19" rx="1.95" ry="4.05"/>
<ellipse id="XMLID_268_" transform="matrix(0.3764 -0.9265 0.9265 0.3764 6.6504 83.63)" class="st14" cx="65.45" cy="36.88" rx="2.2" ry="4.15"/>
<ellipse id="XMLID_267_" transform="matrix(0.9001 -0.4358 0.4358 0.9001 -10.7154 29.6641)" class="st14" cx="59.32" cy="38.19" rx="4.05" ry="1.95"/>
<ellipse id="XMLID_266_" transform="matrix(0.6417 -0.767 0.767 0.6417 -11.0172 58.5049)" class="st14" cx="57.1" cy="41.04" rx="4.05" ry="1.95"/>
<ellipse id="XMLID_265_" transform="matrix(0.7879 -0.6158 0.6158 0.7879 -9.6873 46.0462)" class="st14" cx="62" cy="37.09" rx="1.95" ry="2.64"/>
<ellipse id="XMLID_264_" transform="matrix(0.2953 -0.9554 0.9554 0.2953 4.567 104.7524)" class="st14" cx="73.29" cy="49.28" rx="4.05" ry="1.95"/>
<ellipse id="XMLID_263_" transform="matrix(0.6417 -0.767 0.767 0.6417 -14.6243 73.2767)" class="st14" cx="71.11" cy="52.29" rx="4.05" ry="2.07"/>
<ellipse id="XMLID_262_" transform="matrix(0.9558 -0.2941 0.2941 0.9558 -13.1543 22.2431)" class="st14" cx="67.39" cy="54.86" rx="4.05" ry="1.95"/>
<ellipse id="XMLID_261_" transform="matrix(0.9804 -0.1969 0.1969 0.9804 -7.4135 15.3441)" class="st14" cx="73.44" cy="44.95" rx="2.28" ry="4.05"/>
<circle id="XMLID_260_" class="st14" cx="55.32" cy="97.25" r="1.95"/>
<circle id="XMLID_259_" class="st14" cx="47.3" cy="97.25" r="1.95"/>
</svg>
